<?xml version="1.0" standalone="no"?>
<!DOCTYPE svg PUBLIC "-//W3C//DTD SVG 20010904//EN"
 "http://www.w3.org/TR/2001/REC-SVG-20010904/DTD/svg10.dtd">
<svg version="1.0" xmlns="http://www.w3.org/2000/svg"
 width="1030.000000pt" height="1030.000000pt" viewBox="0 0 1030.000000 1030.000000"
 preserveAspectRatio="xMidYMid meet">
<metadata>
Created by potrace 1.11, written by Peter Selinger 2001-2013
</metadata>
<g transform="translate(0.000000,1030.000000) scale(0.100000,-0.100000)"
fill="#000000" stroke="none">
<path d="M4862 10220 c-1576 -123 -2971 -932 -3856 -2238 -92 -135 -221 -352
-281 -472 l-46 -92 -112 7 c-126 7 -434 -8 -514 -25 -29 -7 -53 -17 -53 -23 0
-23 107 -232 172 -339 36 -58 100 -152 143 -207 l77 -101 -40 -143 c-23 -78
-52 -187 -66 -242 -186 -758 -186 -1631 0 -2390 28 -113 136 -457 194 -615 36
-97 125 -299 152 -345 7 -11 37 -69 68 -130 89 -175 171 -327 200 -370 15 -22
40 -61 56 -87 67 -109 322 -431 493 -623 29 -33 77 -92 107 -131 59 -79 242
-260 379 -375 819 -690 1761 -1083 2850 -1190 195 -20 731 -17 930 5 851 91
1596 353 2285 804 461 301 855 661 1212 1106 l103 129 90 26 c132 39 206 83
302 178 106 107 165 218 171 324 6 99 -4 149 -44 215 l-35 58 60 136 c246 559
383 1098 430 1699 16 195 13 618 -4 814 -57 647 -219 1231 -500 1802 -266 541
-587 982 -1029 1412 -118 115 -185 187 -180 195 5 8 2 9 -9 5 -11 -4 -40 14
-89 55 -124 105 -371 285 -515 377 -679 433 -1411 688 -2228 777 -175 19 -701
27 -873 14z m-817 -568 c9 -29 15 -55 14 -56 -2 -2 -69 -29 -149 -60 -80 -32
-148 -61 -152 -64 -4 -4 63 -202 147 -441 85 -239 154 -436 152 -437 -1 -1
-30 -13 -64 -27 l-62 -25 -14 41 c-93 267 -289 812 -294 822 -6 10 -41 0 -153
-45 -80 -33 -150 -59 -156 -60 -12 0 -51 106 -42 115 13 13 744 302 749 296 4
-3 14 -30 24 -59z m2763 -41 c2 -6 -13 -56 -34 -110 l-38 -100 -66 -15 c-36
-8 -73 -17 -82 -21 -13 -5 -5 26 38 137 30 78 56 148 59 155 5 14 117 -28 123
-46z m-1201 -146 c81 -34 142 -110 158 -197 6 -32 4 -37 -17 -43 -53 -16 -228
-110 -291 -156 -73 -53 -81 -53 -123 -7 -64 69 -83 189 -45 273 22 48 97 118
143 132 50 16 134 15 175 -2z m1458 -179 l60 -14 -55 -1 c-65 -1 -157 -15
-220 -34 l-45 -13 100 -17 c127 -21 217 -58 355 -147 148 -95 474 -255 570
-279 l75 -19 -38 -16 c-128 -53 -270 -80 -417 -80 -182 1 -327 47 -447 143
-29 23 -53 38 -53 35 0 -4 14 -29 31 -56 42 -65 119 -134 245 -218 58 -38 97
-70 87 -70 -42 0 -153 33 -219 65 -130 62 -273 195 -328 303 -83 163 -285 233
-625 219 -301 -13 -511 -94 -665 -257 -71 -76 -127 -179 -147 -270 -6 -30 -10
-97 -7 -155 4 -87 9 -111 35 -168 75 -160 216 -239 453 -254 180 -11 399 30
707 133 208 69 308 86 431 73 183 -20 344 -130 436 -298 13 -26 36 -86 50
-135 21 -72 26 -109 26 -205 0 -134 -10 -185 -78 -411 -72 -240 -86 -325 -85
-510 1 -85 7 -191 15 -235 l14 -80 20 35 c36 65 126 145 190 170 73 27 184 44
240 35 105 -15 372 -175 498 -298 234 -228 282 -471 146 -742 -163 -327 -620
-749 -1299 -1201 -124 -83 -133 -87 -143 -69 -22 40 -89 94 -131 106 -27 7
-83 9 -159 5 -65 -3 -118 -4 -118 -2 0 2 19 15 43 29 69 41 291 201 398 288
338 274 539 542 580 773 18 108 7 275 -24 366 -53 149 -156 264 -303 335 -39
19 -74 35 -78 35 -4 0 14 -17 41 -39 168 -135 250 -295 260 -511 6 -132 -12
-226 -66 -335 -111 -222 -388 -492 -776 -754 -149 -100 -266 -171 -283 -171
-27 0 -102 83 -121 133 -31 84 -44 195 -32 279 5 40 8 74 6 76 -8 8 -55 -88
-69 -143 -31 -116 -10 -267 48 -355 29 -44 98 -93 156 -111 19 -6 93 -13 165
-14 148 -3 155 -7 174 -93 31 -146 25 -338 -13 -394 -34 -51 -90 -75 -277
-118 -318 -73 -346 -103 -326 -345 6 -74 4 -99 -10 -140 l-18 -50 -73 -7
c-146 -13 -283 -116 -348 -263 -16 -35 -32 -65 -36 -65 -10 0 -21 78 -20 140
1 107 53 210 177 359 145 173 428 429 613 555 39 27 70 51 67 54 -2 2 -42 -16
-89 -41 l-86 -46 -57 60 c-69 73 -181 131 -293 153 -98 20 -271 25 -435 15
-71 -5 -186 -9 -255 -10 -172 -3 -211 11 -305 105 -86 86 -144 181 -184 301
-146 441 29 965 513 1535 44 52 72 88 61 80 -71 -52 -135 -109 -243 -215
l-124 -120 49 83 c64 111 182 267 283 374 380 406 913 638 1433 626 l129 -3
-78 -55 c-44 -30 -128 -80 -189 -112 -60 -32 -104 -58 -97 -58 23 0 205 71
297 117 264 132 468 328 551 533 160 395 42 792 -268 899 -139 48 -231 38
-503 -53 -311 -105 -515 -142 -720 -133 -141 6 -211 23 -322 77 -171 84 -258
240 -256 460 3 350 252 612 678 710 278 64 666 49 888 -34 34 -13 71 -26 82
-30 12 -5 4 7 -20 29 -47 43 -143 99 -211 122 l-49 17 45 13 c111 33 313 42
415 19z m622 -94 l52 -38 -43 -61 -42 -61 -48 54 -47 54 31 45 c17 25 34 45
39 45 4 0 30 -17 58 -38z m-4637 -68 c25 -12 62 -40 83 -62 l38 -39 -51 -43
-51 -43 -27 25 c-97 91 -217 73 -344 -52 -90 -88 -100 -182 -26 -245 28 -24
39 -27 83 -23 27 3 117 30 198 61 81 31 175 61 208 67 143 26 266 -47 309
-183 7 -22 10 -71 8 -112 l-3 -73 -139 -143 c-167 -173 -200 -193 -321 -194
-93 0 -148 20 -214 81 -66 59 -67 64 -11 112 l48 42 33 -31 c79 -74 169 -84
281 -32 184 86 261 259 159 357 -48 46 -105 46 -232 1 -278 -99 -269 -97 -351
-93 -66 3 -82 7 -119 33 -55 38 -96 104 -109 174 -28 147 80 309 266 402 103
51 200 56 284 13z m3401 -303 c48 -118 139 -215 252 -271 45 -22 111 -46 147
-53 55 -11 65 -16 62 -33 -2 -10 -7 -22 -10 -25 -5 -5 -577 223 -589 234 -1 2
19 58 44 125 26 67 50 119 53 115 4 -5 22 -46 41 -92z m1723 -213 c-16 -28
-27 -37 -36 -31 -6 3 -1 14 13 24 29 22 33 23 23 7z m-3048 -186 c4 -318 176
-527 503 -610 94 -24 392 -23 516 1 126 25 315 78 485 137 130 45 154 50 231
50 100 0 167 -17 232 -61 129 -85 195 -269 169 -473 -26 -210 -105 -375 -254
-532 l-58 -61 -198 5 c-225 5 -368 -10 -553 -57 -605 -153 -1138 -597 -1409
-1174 -49 -104 -110 -271 -110 -301 0 -13 -11 -16 -52 -16 -30 0 -71 -9 -94
-19 -59 -27 -164 -129 -251 -245 -85 -112 -76 -108 -188 -79 -93 24 -252 104
-344 172 -157 118 -343 329 -517 587 l-71 106 55 81 c296 443 471 1194 448
1922 -4 110 -9 218 -12 240 l-6 41 119 56 c354 169 710 270 1098 313 66 7 152
13 190 14 l70 1 1 -98z m536 72 c239 -29 523 -100 747 -185 58 -23 114 -43
124 -46 35 -11 15 -23 -94 -58 -173 -56 -339 -93 -474 -107 -105 -10 -136 -9
-219 4 -225 37 -316 133 -316 333 0 39 3 74 6 78 7 6 48 3 226 -19z m3023
-175 l25 -36 -145 -463 c-80 -255 -144 -467 -143 -471 2 -3 125 94 273 218
149 123 286 237 306 254 l37 29 40 -54 40 -53 -395 -329 c-218 -181 -399 -330
-403 -332 -4 -1 -26 22 -49 53 l-42 55 149 475 c82 261 144 471 138 468 -6 -4
-146 -119 -311 -256 l-300 -249 -32 39 c-30 35 -50 71 -41 77 1 1 147 121 323
267 176 146 325 268 330 271 6 3 43 0 83 -7 39 -6 72 -11 72 -9 0 1 -20 15
-45 31 -25 15 -45 31 -45 35 0 3 17 20 37 37 l38 31 17 -22 c10 -13 29 -39 43
-59z m-6271 -170 c275 -105 504 -194 508 -197 3 -4 -17 -33 -45 -65 l-52 -58
-148 61 c-82 34 -152 60 -156 58 -11 -4 -275 -307 -280 -320 -2 -6 29 -78 69
-158 l73 -148 -48 -56 c-27 -31 -50 -55 -51 -53 -7 7 -465 985 -470 1002 -3
14 9 36 41 73 26 28 49 52 52 52 3 0 231 -86 507 -191z m4843 165 c58 -19 90
-37 126 -71 83 -77 188 -111 261 -83 14 5 44 26 67 47 40 37 45 38 130 43 49
3 89 3 89 1 0 -11 -86 -114 -125 -150 -95 -88 -194 -110 -314 -71 -49 15 -80
33 -103 57 -18 19 -63 56 -99 84 -61 46 -119 123 -119 158 0 15 -2 15 87 -15z
m-3711 -395 c7 -289 -3 -449 -42 -653 -46 -238 -130 -439 -248 -596 -63 -83
-176 -200 -194 -200 -11 0 -73 131 -101 213 -28 80 -44 207 -36 286 31 315
249 805 551 1236 l49 70 7 -50 c5 -27 11 -165 14 -306z m-2011 -126 c25 -16
45 -32 45 -36 0 -5 -61 -116 -135 -247 -74 -130 -135 -241 -135 -246 1 -11
252 -164 261 -158 4 2 60 98 125 213 l118 210 41 -25 c22 -14 46 -28 53 -32 9
-6 -19 -65 -108 -221 -99 -175 -119 -216 -108 -226 7 -7 95 -63 195 -124 l183
-113 -33 -59 c-17 -32 -35 -59 -39 -59 -4 0 -132 77 -285 171 -242 149 -288
181 -353 248 -41 42 -102 100 -136 127 l-60 50 150 265 c162 284 165 289 171
289 2 0 25 -12 50 -27z m1518 -80 c-234 -503 -288 -789 -202 -1056 12 -34 49
-123 84 -198 93 -197 107 -320 50 -447 l-24 -52 27 6 c50 12 90 44 114 92 20
40 23 61 22 147 -1 55 -6 112 -11 126 -10 23 -7 28 46 71 69 55 151 147 221
248 46 67 51 71 45 40 -30 -140 -174 -495 -255 -625 -99 -160 -111 -181 -130
-231 -20 -54 -35 -248 -18 -238 4 3 8 14 8 25 0 30 15 16 40 -38 36 -75 49
-138 60 -283 18 -240 53 -402 113 -533 l33 -72 -42 3 c-77 7 -134 -45 -134
-121 0 -45 9 -51 37 -25 12 12 26 18 30 14 12 -12 16 -216 5 -216 -6 0 -30 23
-53 52 -58 69 -172 165 -247 208 l-61 35 -1 61 c0 153 -126 267 -295 268 -86
1 -127 -10 -183 -49 l-50 -34 -106 6 c-58 3 -104 9 -102 12 15 24 47 221 42
254 -25 156 -186 254 -312 189 -43 -22 -63 -42 -88 -87 l-17 -30 7 45 c7 53
24 88 53 114 28 25 127 46 224 46 42 0 77 3 77 8 0 4 -20 18 -45 32 -38 21
-45 29 -45 55 0 42 33 175 44 175 26 0 143 70 181 107 l43 44 6 -26 c4 -14 25
-46 47 -70 l40 -44 62 50 c98 79 192 117 329 133 l46 5 9 -82 8 -82 22 45 c33
66 46 183 38 330 -6 114 -17 191 -76 555 -25 152 -27 342 -4 448 37 176 128
383 246 561 39 58 73 106 75 106 2 0 -13 -35 -33 -77z m4670 -298 c123 -136
274 -335 367 -486 109 -176 238 -437 296 -603 l14 -38 -71 67 c-183 172 -512
335 -854 421 -55 14 -101 27 -102 28 -5 5 39 132 93 268 63 158 93 265 100
358 3 36 7 80 10 98 5 34 6 34 26 15 12 -10 66 -67 121 -128z m-5010 -75 c-89
-237 -98 -421 -39 -771 46 -274 76 -472 73 -476 -6 -5 -222 47 -299 72 -159
51 -240 101 -274 166 -23 46 -38 36 -31 -20 7 -63 46 -140 89 -177 l33 -29
-60 -20 c-33 -12 -79 -33 -102 -48 -24 -15 -45 -27 -48 -27 -2 0 -18 26 -34
57 l-29 58 43 125 c137 400 355 777 639 1107 39 45 71 81 73 80 1 -2 -14 -45
-34 -97z m-2238 -30 c109 -13 239 -51 320 -93 110 -59 248 -218 438 -508 211
-321 395 -609 391 -609 -12 0 -201 123 -289 189 -117 88 -322 290 -415 410
-95 123 -105 132 -70 66 90 -169 209 -323 373 -482 64 -62 113 -113 110 -113
-18 0 -246 118 -328 169 -245 154 -476 373 -655 619 -61 85 -200 320 -200 338
0 22 185 29 325 14z m641 -153 c193 -142 419 -440 641 -842 158 -286 194 -355
188 -355 -3 0 -20 6 -38 14 -72 30 -168 161 -546 745 -152 236 -250 368 -344
465 l-72 74 55 -28 c30 -15 83 -48 116 -73z m8135 14 c116 -37 209 -121 273
-248 83 -165 72 -337 -30 -472 -67 -89 -72 -90 -115 -24 l-37 56 44 53 c53 66
79 145 69 212 -24 162 -131 279 -271 297 -118 16 -332 -67 -431 -166 -68 -67
-95 -123 -101 -208 -9 -126 48 -248 142 -306 43 -26 61 -31 140 -35 l91 -5 8
-60 c11 -88 11 -88 -91 -83 -113 6 -186 34 -256 98 -135 124 -199 372 -137
532 99 255 453 436 702 359z m-7309 -626 c-26 -83 -30 -89 -62 -101 -19 -7
-40 -13 -47 -13 -11 -1 -68 88 -75 117 -2 9 32 26 102 52 58 21 106 37 107 36
1 -1 -10 -42 -25 -91z m-927 -374 c110 -38 250 -87 310 -111 61 -23 160 -55
220 -71 138 -36 208 -67 200 -88 -4 -9 -11 -35 -18 -58 -6 -24 -16 -43 -22
-43 -19 0 -939 301 -949 311 -15 14 24 129 43 129 9 -1 106 -32 216 -69z
m8769 -183 c9 -58 12 -108 6 -108 -17 -1 -404 -50 -406 -53 -2 -2 53 -541 55
-542 1 -1 91 10 202 23 110 13 203 22 206 19 3 -3 8 -35 10 -70 l6 -65 -39 -6
c-46 -7 -949 -116 -962 -116 -11 0 -27 128 -18 137 3 3 107 18 231 33 125 15
229 30 232 33 6 7 -44 528 -52 535 -3 3 -109 -7 -236 -22 -127 -15 -232 -26
-234 -24 -4 5 -17 138 -13 138 79 12 953 118 975 119 29 1 33 -2 37 -31z
m-8094 -295 l-5 -76 -152 -51 c-83 -28 -154 -53 -157 -56 -9 -10 -36 -434 -28
-442 4 -4 70 -36 147 -71 l140 -64 -3 -57 c-2 -31 2 -82 8 -112 11 -53 11 -56
-17 -91 -15 -19 -38 -49 -49 -65 -12 -16 -24 -26 -27 -21 -8 14 -30 173 -25
179 3 2 25 8 49 12 l43 7 -95 46 c-51 25 -271 130 -487 234 l-393 188 7 76 c4
42 10 77 13 79 27 13 1009 361 1021 362 12 0 14 -13 10 -77z m6900 -339 c13
-191 8 -390 -15 -588 -13 -112 -16 -121 -46 -152 -17 -18 -55 -43 -83 -56 -45
-20 -66 -23 -181 -23 -109 1 -146 5 -228 28 -113 31 -255 93 -241 106 5 5 43
37 84 72 338 285 594 586 668 784 23 63 28 43 42 -171z m-4915 -275 c128 -96
277 -171 395 -199 30 -7 58 -15 62 -17 4 -2 -3 -21 -16 -41 -12 -20 -44 -77
-71 -125 -44 -83 -49 -88 -74 -82 -49 12 -135 56 -189 96 -113 86 -250 301
-322 504 l-31 90 93 -91 c51 -49 120 -111 153 -135z m-1713 174 c37 -33 13
-95 -37 -95 -36 0 -68 36 -59 66 13 45 62 60 96 29z m2678 -38 c0 -2 -8 -26
-19 -52 -50 -130 -65 -228 -66 -438 0 -159 4 -218 19 -285 92 -425 264 -623
560 -646 39 -3 86 -7 105 -10 l33 -5 -4 -50 c-5 -48 -48 -128 -73 -135 -5 -2
-36 42 -68 97 -32 56 -60 99 -63 97 -2 -3 7 -38 21 -79 50 -146 72 -396 43
-493 -21 -68 -78 -115 -247 -199 -84 -42 -184 -99 -223 -126 -158 -110 -310
-293 -379 -459 -17 -43 -47 -137 -65 -211 -18 -73 -40 -143 -48 -155 -8 -13
-42 -39 -75 -59 -71 -42 -57 -45 -228 41 -107 53 -114 58 -108 82 21 82 64
133 217 256 153 122 254 222 302 296 52 81 92 212 108 348 l13 115 22 -55 c20
-51 22 -52 22 -23 2 100 -67 339 -139 484 -55 108 -70 175 -77 329 -5 123 8
312 24 358 4 10 3 14 0 11 -12 -10 -67 -202 -87 -305 -16 -83 -20 -148 -21
-350 -2 -363 -15 -455 -69 -484 -32 -17 -79 10 -159 95 -165 174 -190 352 -96
680 55 189 222 570 355 807 169 301 362 528 447 528 13 0 23 -2 23 -5z m-2080
-356 c104 -22 180 -132 188 -272 4 -61 7 -74 16 -62 10 14 19 11 71 -23 81
-52 166 -132 237 -220 l58 -74 -17 -30 c-25 -43 -79 -87 -138 -114 -108 -49
-153 -55 -485 -65 -325 -8 -406 -18 -492 -57 -63 -29 -123 -85 -152 -144 -28
-56 -32 -91 -15 -135 11 -28 11 -28 20 -5 4 12 12 22 17 22 10 0 46 -110 38
-117 -12 -13 -124 19 -161 45 -76 54 -104 150 -105 359 l0 92 -47 21 c-140 62
-178 153 -113 267 25 43 101 113 124 113 2 0 17 5 32 10 24 10 25 12 10 23
-15 11 -10 20 49 92 110 133 220 190 391 202 105 8 138 0 132 -31 -4 -20 3
-17 58 25 60 45 125 74 189 82 17 2 33 5 37 6 4 0 30 -4 58 -10z m6391 -115
c88 -44 132 -108 122 -179 -2 -16 -37 -91 -78 -165 -98 -181 -285 -558 -320
-645 -71 -179 -68 -305 9 -382 l42 -42 -71 -45 c-168 -106 -255 -260 -242
-426 3 -49 2 -59 -5 -40 -17 43 -21 196 -8 308 10 92 64 323 140 601 30 113
23 177 -30 254 -49 71 -163 124 -325 152 -121 21 -439 24 -588 6 -55 -7 -101
-10 -104 -7 -15 15 128 216 232 324 l70 74 79 -32 c118 -47 228 -70 356 -77
126 -6 214 9 293 48 23 12 108 86 189 166 162 160 147 154 239 107z m-7752
-166 c6 -35 27 -164 47 -288 20 -124 37 -226 38 -227 2 -2 28 2 59 8 l57 12
40 -37 c23 -20 52 -42 66 -48 38 -17 29 -35 -23 -46 -203 -42 -714 -134 -719
-130 -5 5 -123 716 -124 744 0 9 109 37 117 30 1 -1 25 -138 52 -305 27 -166
51 -304 53 -307 5 -5 285 50 293 57 3 4 -15 133 -40 289 -25 155 -45 284 -43
285 3 3 87 22 104 24 7 1 17 -26 23 -61z m2391 -240 c26 -95 -87 -315 -267
-524 l-43 -49 0 55 c-1 53 -1 54 -15 29 -34 -63 -95 -355 -95 -455 0 -29 -4
-55 -9 -59 -5 -3 -26 22 -46 55 -21 34 -39 60 -40 58 -2 -2 -8 -64 -14 -138
-12 -161 -38 -266 -90 -377 l-40 -82 -30 9 c-28 8 -31 7 -31 -14 0 -13 -11
-57 -24 -97 -13 -41 -29 -93 -35 -116 l-12 -42 -124 96 c-69 52 -125 99 -125
103 0 4 18 10 41 14 118 19 227 126 297 293 29 68 28 76 -4 28 -64 -97 -153
-161 -276 -200 -174 -55 -314 -10 -347 112 -18 65 -13 66 55 9 59 -51 69 -56
114 -56 62 0 162 31 222 69 207 132 380 447 464 850 24 112 33 139 57 165 40
43 84 134 102 208 8 36 15 112 15 176 0 61 4 112 8 112 5 0 17 -7 28 -15 28
-21 37 -18 32 10 -4 19 20 1 108 -82 91 -84 116 -113 124 -145z m4555 -309
c86 -12 191 -41 218 -62 17 -12 16 -19 -28 -122 -303 -710 -822 -1284 -1493
-1654 -116 -64 -331 -165 -338 -158 -2 2 18 20 45 40 108 82 312 319 346 402
20 45 19 71 -4 122 -43 93 -146 166 -384 271 -95 41 -173 76 -174 77 -2 0 7
25 18 55 11 29 23 82 26 117 l6 64 156 150 c86 83 196 183 245 222 127 102
161 138 195 209 25 53 38 68 84 96 123 74 313 138 497 166 115 17 476 21 585
5z m-5225 -128 c15 -29 12 -67 -6 -85 -8 -9 -18 -16 -22 -16 -7 0 -72 95 -72
104 0 3 15 7 33 9 17 2 37 5 44 5 7 1 17 -7 23 -17z m-314 -43 c58 -65 134
-188 134 -219 0 -20 -41 -69 -58 -69 -4 0 -18 24 -30 53 -12 28 -47 85 -77
126 -55 74 -66 106 -43 129 20 20 43 14 74 -20z m172 -20 c65 -88 68 -99 42
-120 -26 -21 -20 -27 -84 80 -60 99 -26 131 42 40z m-377 -7 c50 -31 160 -169
191 -239 17 -37 18 -48 7 -73 -28 -69 -136 -129 -229 -129 l-47 0 -51 108
c-79 166 -95 212 -89 255 13 99 124 138 218 78z m3040 -107 c105 -52 162 -130
162 -218 0 -143 -132 -354 -278 -444 -27 -17 -51 -30 -52 -29 -1 2 4 21 12 42
8 22 14 63 15 91 0 65 -25 202 -50 267 l-19 49 32 61 c29 55 32 69 32 148 l0
86 50 -14 c27 -9 71 -26 96 -39z m-2487 -1 c-8 -27 -17 -58 -20 -70 -8 -28
-11 -29 -34 -1 -16 21 -16 24 -1 54 13 25 40 51 68 63 1 1 -5 -20 -13 -46z
m-865 -27 c20 -11 35 -33 56 -88 15 -40 48 -113 73 -163 l44 -89 -26 -23 c-17
-14 -40 -23 -61 -23 -44 0 -76 41 -150 191 -58 117 -65 158 -34 195 15 18 62
18 98 0z m-451 -140 l30 -28 -34 -59 c-86 -146 -85 -179 10 -402 l16 -37 63
31 c34 18 126 63 205 100 l143 68 24 -56 c14 -30 25 -61 25 -67 0 -10 -896
-446 -918 -446 -9 0 -182 400 -223 515 -12 35 -21 87 -22 125 -1 54 4 74 28
118 107 197 345 213 470 32 l30 -43 7 47 c4 26 23 82 43 124 l37 77 18 -35
c10 -19 32 -48 48 -64z m1238 -2 c4 -17 0 -40 -12 -66 l-20 -40 -31 50 -31 50
16 47 17 46 27 -30 c15 -17 31 -43 34 -57z m653 -31 c109 -40 128 -56 141
-118 18 -86 64 -166 157 -272 110 -125 207 -256 268 -361 l48 -83 -49 -50
c-27 -28 -105 -97 -174 -153 -154 -127 -214 -190 -246 -261 l-26 -55 -71 37
c-214 113 -651 442 -630 476 4 7 24 35 44 62 50 67 110 194 139 294 l24 82 22
-36 c12 -20 24 -33 27 -28 28 49 77 265 77 336 -1 39 4 46 67 104 76 69 70 68
182 26z m-791 -35 c48 -53 55 -124 16 -180 -28 -40 -44 -48 -44 -23 0 21 -38
95 -62 122 l-20 22 21 35 c19 30 31 39 62 45 3 0 15 -9 27 -21z m-122 -153
c18 -32 27 -61 28 -97 1 -49 -1 -53 -42 -85 -89 -68 -127 -58 -188 47 -64 114
-64 116 -4 123 28 3 75 17 103 31 29 13 57 25 64 25 7 1 24 -19 39 -44z m5683
-127 c-8 -51 -20 -94 -33 -113 -12 -16 -62 -95 -113 -175 l-92 -145 26 -20
c15 -11 77 -55 138 -97 l112 -77 17 30 17 29 45 -32 c48 -34 50 -39 33 -70
-10 -18 -7 -25 23 -52 19 -17 52 -52 72 -79 38 -48 116 -106 196 -147 25 -12
47 -24 48 -25 9 -8 -52 -96 -63 -92 -9 4 -812 556 -834 573 -2 2 61 106 140
231 95 151 165 250 206 292 35 36 65 62 68 59 4 -3 1 -44 -6 -90z m-5961 -11
c47 -92 48 -97 28 -97 -15 0 -106 93 -125 127 -10 20 -8 24 16 37 16 8 30 15
33 16 3 0 24 -38 48 -83z m6976 -186 c-75 -60 -189 -202 -237 -296 -62 -124
-75 -261 -33 -350 42 -89 142 -181 231 -213 55 -19 -131 -14 -230 7 -126 27
-137 32 -167 88 -83 153 -46 351 100 535 74 93 191 189 287 235 92 44 109 42
49 -6z m-7076 -155 c26 -13 66 -40 88 -60 41 -35 324 -398 324 -415 0 -8 -774
-664 -788 -668 -13 -4 -281 361 -306 418 -36 78 -42 134 -22 204 21 71 88 146
152 171 44 17 123 16 168 -2 16 -6 18 -4 12 12 -4 10 -10 42 -13 70 -21 195
212 358 385 270z m4049 -86 c-46 -36 -146 -179 -192 -273 -84 -175 -111 -350
-68 -448 23 -52 79 -104 122 -114 17 -4 31 -10 31 -15 0 -8 -279 -80 -311 -80
-12 0 -15 12 -15 65 1 46 5 65 14 65 10 0 11 9 5 38 -15 71 -7 173 22 257 67
202 238 438 365 506 47 24 59 24 27 -1z m1539 -225 c32 -40 35 -47 21 -58 -8
-7 -110 -99 -226 -206 -182 -168 -209 -196 -198 -211 32 -44 182 -220 188
-220 4 0 100 86 215 191 l208 192 38 -44 c20 -24 38 -47 38 -50 0 -3 -95 -93
-210 -199 -186 -170 -209 -195 -197 -209 8 -9 58 -69 112 -134 96 -115 98
-117 118 -100 11 10 117 107 236 215 l216 198 37 -43 c20 -23 37 -45 38 -49 0
-10 -558 -523 -569 -523 -11 0 -661 781 -660 792 1 10 540 503 550 503 4 0 24
-20 45 -45z m-2836 -123 l55 -7 52 -100 c59 -114 93 -205 93 -250 0 -17 -20
-72 -43 -121 -24 -49 -49 -106 -56 -126 -14 -43 -5 -42 -161 -28 -140 13 -331
43 -456 72 l-93 21 20 40 c13 25 26 82 35 161 8 66 21 143 30 171 25 75 63
158 77 167 14 9 369 9 447 0z m2305 -904 c116 -254 213 -469 217 -480 6 -15
-3 -24 -55 -49 l-63 -31 -403 247 c-221 136 -404 245 -406 243 -2 -2 68 -160
155 -352 88 -192 162 -357 165 -367 5 -15 -5 -24 -49 -46 -35 -17 -59 -23 -64
-18 -5 6 -102 217 -217 470 -114 253 -209 463 -211 467 -6 10 107 70 125 65 9
-2 194 -113 410 -246 217 -132 395 -240 397 -238 1 1 -71 164 -161 362 -91
198 -165 365 -165 370 0 9 93 63 110 64 3 0 100 -207 215 -461z m-2977 27
c111 -25 226 -54 257 -66 109 -40 193 -130 231 -246 27 -82 25 -267 -5 -378
-47 -178 -139 -308 -259 -367 -98 -49 -185 -46 -447 11 -110 24 -204 47 -208
51 -7 6 190 978 208 1028 2 6 8 12 13 12 4 0 99 -20 210 -45z m-1067 -21 c86
-47 136 -142 126 -239 -9 -91 -60 -164 -142 -201 -174 -82 -370 55 -352 246
16 183 205 282 368 194z m2949 31 c0 -3 36 -231 80 -507 44 -277 80 -512 80
-524 0 -18 -9 -23 -67 -32 -62 -11 -69 -10 -83 7 -61 77 -625 690 -628 682 -2
-5 24 -181 57 -390 34 -209 61 -387 61 -395 0 -9 -22 -18 -61 -25 -34 -7 -62
-11 -64 -9 -6 8 -166 1040 -162 1045 9 8 80 23 112 22 27 0 67 -41 349 -355
176 -195 320 -353 321 -352 1 2 -26 181 -61 398 -35 217 -62 399 -60 405 1 5
27 15 57 21 69 15 69 15 69 9z m-984 -287 c-3 -90 -8 -266 -11 -393 -3 -126
-8 -294 -11 -373 l-6 -142 -63 0 c-35 0 -66 3 -68 8 -2 4 2 207 9 452 7 245
13 482 13 528 l1 82 71 0 71 0 -6 -162z"/>
<path d="M1989 8116 c26 -44 78 -147 116 -228 39 -81 73 -146 76 -145 3 1 56
59 118 130 107 121 111 128 89 136 -50 19 -317 131 -379 159 l-66 30 46 -82z"/>
<path d="M2477 5790 c-96 -25 -159 -80 -208 -184 -39 -83 -36 -94 11 -42 42
46 133 99 189 111 53 11 133 7 180 -10 60 -21 142 -84 182 -140 18 -25 34 -43
36 -41 7 7 -37 127 -61 164 -30 48 -99 110 -142 128 -45 19 -139 26 -187 14z"/>
<path d="M2451 5534 c-61 -31 -104 -84 -126 -156 -8 -29 -17 -119 -21 -226
l-6 -177 33 54 c19 30 45 63 59 73 24 18 26 18 67 -3 91 -45 216 -19 284 58
44 51 59 92 59 163 0 182 -185 295 -349 214z m219 -86 c43 -46 10 -118 -55
-118 -36 0 -75 36 -75 70 0 10 9 29 21 44 27 34 79 36 109 4z"/>
<path d="M1040 5404 c-107 -35 -210 -67 -227 -70 -18 -3 -33 -9 -33 -13 0 -3
29 -16 64 -29 35 -13 135 -56 222 -97 86 -41 159 -73 161 -71 4 4 22 239 23
299 0 26 -3 47 -7 46 -5 -1 -96 -30 -203 -65z"/>
<path d="M2494 4755 c-76 -32 -114 -115 -113 -244 0 -61 2 -71 10 -51 6 13 21
39 34 56 22 29 30 32 89 36 72 4 100 21 123 76 33 79 -61 163 -143 127z"/>
<path d="M1496 4308 c-31 -43 -19 -101 25 -123 36 -19 53 -19 95 1 26 12 50
15 92 11 l56 -6 -44 25 c-24 14 -68 45 -96 70 -60 51 -103 58 -128 22z"/>
<path d="M1166 3408 c-57 -34 -78 -78 -73 -158 3 -53 17 -96 77 -237 40 -95
76 -173 80 -173 4 0 73 31 153 70 l146 69 -40 98 c-118 284 -160 344 -251 350
-42 3 -61 -1 -92 -19z"/>
<path d="M2094 2729 c-46 -13 -110 -87 -119 -137 -11 -68 15 -125 126 -273 56
-74 102 -135 102 -136 4 -3 262 217 265 226 3 8 -150 214 -197 265 -29 32 -95
66 -126 65 -11 0 -34 -5 -51 -10z"/>
<path d="M1732 2380 c-37 -23 -69 -71 -78 -116 -9 -47 20 -101 125 -242 l92
-123 119 102 120 101 -50 64 c-27 35 -73 93 -100 128 -28 36 -66 74 -84 85
-42 26 -101 27 -144 1z"/>
<path d="M4204 1426 c-4 -13 -164 -766 -164 -775 0 -14 267 -65 336 -65 62 0
78 4 120 29 88 56 158 193 185 366 28 182 -29 326 -150 376 -64 27 -322 82
-327 69z"/>
</g>
</svg>
